<?xml version="1.0" encoding="UTF-8" standalone="no"?>
<!-- Created with Inkscape (http://www.inkscape.org/) -->

<svg
   version="1.1"
   id="svg1"
   width="256"
   height="256"
   viewBox="0 0 256 256"
   sodipodi:docname="FundForge SVG.svg"
   inkscape:version="1.4.2 (f4327f4, 2025-05-13)"
   xmlns:inkscape="http://www.inkscape.org/namespaces/inkscape"
   xmlns:sodipodi="http://sodipodi.sourceforge.net/DTD/sodipodi-0.dtd"
   xmlns="http://www.w3.org/2000/svg"
   xmlns:svg="http://www.w3.org/2000/svg">
  <defs
     id="defs1" />
  <sodipodi:namedview
     id="namedview1"
     pagecolor="#ffffff"
     bordercolor="#000000"
     borderopacity="0.25"
     inkscape:showpageshadow="2"
     inkscape:pageopacity="0.0"
     inkscape:pagecheckerboard="0"
     inkscape:deskcolor="#d1d1d1"
     showgrid="false"
     inkscape:zoom="2.8710938"
     inkscape:cx="182.16054"
     inkscape:cy="128"
     inkscape:window-width="1920"
     inkscape:window-height="974"
     inkscape:window-x="-11"
     inkscape:window-y="-11"
     inkscape:window-maximized="1"
     inkscape:current-layer="g1" />
  <g
     inkscape:groupmode="layer"
     inkscape:label="Image"
     id="g1">
    <path
       style="fill:#000000"
       d="m 106.56189,240.44031 c -35.497591,-7.11994 -65.387721,-32.90869 -77.535381,-66.89638 -5.10916,-14.2948 -6.80804,-25.50923 -6.15233,-40.61195 2.1914,-50.473637 37.49535,-90.646958 87.071301,-99.08081 9.76905,-1.661908 31.12508,-0.658649 40.79184,1.916313 18.4878,4.924642 33.18419,13.405962 46.94409,27.091531 13.57501,13.501681 22.26655,28.529678 27.63934,47.789476 2.52483,9.05073 2.72463,11.13165 2.66768,27.78349 -0.0566,16.54905 -0.27865,18.72547 -2.75462,27 -13.9867,46.74269 -53.28036,76.70875 -100.17192,76.3929 -6.6,-0.0445 -14.925,-0.66751 -18.5,-1.38457 z m 3,-21.77944 c 1.1137,-0.42394 0.98493,-0.617 -0.5,-0.74962 -1.70353,-0.15215 -1.62941,-0.29731 0.5,-0.97927 l 2.5,-0.80064 -2.75,-0.0997 c -2.36095,-0.0856 -2.74783,0.28937 -2.73469,2.65032 0.008,1.5125 0.34592,2.25497 0.75,1.64994 0.40408,-0.60503 1.40969,-1.357 2.23469,-1.67105 z m 18.79384,0.58756 c -0.18761,-1.07488 0.61001,-1.94269 2.20616,-2.40032 l 2.5,-0.71677 -2.66667,-0.0997 c -2.69383,-0.1007 -3.92269,1.35618 -3.07903,3.65032 0.67095,1.82452 1.3819,1.52801 1.03954,-0.43355 z m -30.793819,-0.31645 c 0,-0.55 -0.47656,-1 -1.05902,-1 -0.58246,0 -0.7809,0.45 -0.44098,1 0.33991,0.55 0.81647,1 1.05901,1 0.24254,0 0.44099,-0.45 0.44099,-1 z m 57.999979,0 c 0,-0.55 -0.47656,-1 -1.05902,-1 -0.58246,0 -0.7809,0.45 -0.44098,1 0.33992,0.55 0.81648,1 1.05902,1 0.24254,0 0.44098,-0.45 0.44098,-1 z m -35.5,-1 -2,-0.85943 2,-0.14923 c 1.15945,-0.0865 1.46079,-0.36584 0.71701,-0.66462 -1.81281,-0.72821 -4.4668,0.46009 -3.72138,1.66622 0.34232,0.55388 1.60835,0.97543 2.81339,0.93677 2.11236,-0.0678 2.11922,-0.10112 0.19098,-0.92971 z m 23.36168,-0.33333 c 0.87987,-1.06018 0.49848,-1.33334 -1.86168,-1.33334 -2.36016,0 -2.74155,0.27316 -1.86168,1.33334 0.60861,0.73333 1.44637,1.33333 1.86168,1.33333 0.41531,0 1.25307,-0.6 1.86168,-1.33333 z M 97.976451,199.69729 c 0.597,-0.40408 -0.48954,-0.70605 -2.41454,-0.67105 -1.925,0.035 -2.9375,0.29061 -2.25,0.56802 0.6875,0.27741 1.26368,1.47939 1.2804,2.67105 0.0298,2.12528 0.0521,2.12846 1.16454,0.16667 0.62377,-1.1 1.62259,-2.33061 2.2196,-2.73469 z m 15.085439,1.73469 c 0,-1.52546 -0.77112,-2.07435 -3.25,-2.31336 -2.92134,-0.28167 -3.25,-0.0477 -3.25,2.31336 0,2.36109 0.32866,2.59503 3.25,2.31336 2.47888,-0.23901 3.25,-0.7879 3.25,-2.31336 z m -5.5,0 c 0,-0.93333 0.94444,-1.5 2.5,-1.5 1.55556,0 2.5,0.56667 2.5,1.5 0,0.93333 -0.94444,1.5 -2.5,1.5 -1.55556,0 -2.5,-0.56667 -2.5,-1.5 z m 17.15836,1.25836 c 0.6829,0.6829 1.71414,1.22733 2.29164,1.20984 0.5775,-0.0175 0.2311,-0.65256 -0.76977,-1.41127 -1.7597,-1.33392 -1.7597,-1.41439 0,-2.43778 1.00087,-0.58208 1.34727,-1.07202 0.76977,-1.08874 -0.5775,-0.0167 -1.60874,0.52833 -2.29164,1.21123 -0.98886,0.98886 -1.43364,0.93796 -2.18469,-0.25 -0.71264,-1.1272 -0.94304,-0.75867 -0.94304,1.50836 0,2.26703 0.2304,2.63556 0.94304,1.50836 0.75105,-1.18796 1.19583,-1.23886 2.18469,-0.25 z m 14.34164,0.44536 -3,-0.49661 2.5,-0.75388 2.5,-0.75387 -2.5,-0.21799 c -2.36981,-0.20665 -2.34377,-0.25775 0.5,-0.98137 l 3,-0.76337 -3.25,-0.11832 c -2.83155,-0.10308 -3.25,0.20357 -3.25,2.38169 0,2.18458 0.41004,2.4811 3.25,2.35017 l 3.25,-0.14983 z m 13.79674,-0.70843 c 2.99308,2.09644 3.70326,1.89425 3.70326,-1.05431 0,-1.47875 -0.42903,-2.29386 -1.01631,-1.9309 -0.55897,0.34546 -0.75742,1.04702 -0.44098,1.55902 0.94646,1.53142 -1.19772,1.05151 -2.54271,-0.5691 -1.89568,-2.28416 -3.01266,-1.80004 -2.884,1.25 0.0717,1.70076 0.29084,2.08051 0.57423,0.99529 0.41528,-1.59024 0.6596,-1.61367 2.60651,-0.25 z m -76.520291,-1.22218 c -2.04796,-0.21488 -5.64796,-0.21785 -8,-0.007 -2.35204,0.21125 -0.67643,0.38706 3.72357,0.39069 4.4,0.004 6.32439,-0.16921 4.27643,-0.38408 z m 104.999981,0 c -2.04796,-0.21488 -5.64796,-0.21785 -8,-0.007 -2.35204,0.21125 -0.67643,0.38706 3.72357,0.39069 4.4,0.004 6.32439,-0.16921 4.27643,-0.38408 z M 60.561909,190.43198 c 0,-1.08333 1.11111,-1.5 4,-1.5 2.2,0 4,-0.45 4,-1 0,-0.55 -1.575,-1 -3.5,-1 -5.32466,0 -4.1787,-1.97755 1.25,-2.1571 l 4.75,-0.15711 -5,-0.61552 c -2.75,-0.33853 -5.5625,-0.44469 -6.25,-0.23591 -1.48717,0.45164 -1.72335,8.16564 -0.25,8.16564 0.55,0 1,-0.675 1,-1.5 z m 24.569502,-0.92091 c 0.33418,-1.33149 0.4491,-3.24399 0.25536,-4.25 -0.58227,-3.02349 -2.302942,-1.61965 -2.635232,2.15002 -0.2979,3.37953 -0.46854,3.52089 -4.25,3.52089 -3.93912,0 -3.93963,-5.3e-4 -3.93963,-4.05902 0,-2.45136 -0.39607,-3.81423 -1,-3.44098 -1.11508,0.68916 -1.37478,6.7919 -0.33334,7.83333 0.36667,0.36667 3.0581,0.66667 5.98095,0.66667 4.78828,0 5.374422,-0.23962 5.921892,-2.42091 z m 4.98745,-0.23054 0.94305,-2.65146 3.14435,2.65146 c 4.5925,3.87259 6.355639,3.51486 6.355639,-1.28953 0,-2.16754 -0.45,-4.2191 -0.999999,-4.55902 -0.58342,-0.36058 -0.99999,0.65628 -0.99999,2.44098 0,3.70081 -0.2504,3.73255 -4.41112,0.55902 -4.88038,-3.72245 -6.58888,-3.3335 -6.58888,1.5 0,4.59188 1.18173,5.21513 2.55695,1.34855 z m 24.943029,-1.7488 v -3.90025 l -5.75,-0.17164 -5.75,-0.17164 v 4.37179 4.3718 l 5.75,-0.29991 5.75,-0.2999 z m -9.5,0.40025 c 0,-2.99469 0.15146,-3.1082 3.75,-2.81037 3.25057,0.26904 3.75,0.64332 3.75,2.81037 0,2.16705 -0.49943,2.54133 -3.75,2.81037 -3.59854,0.29783 -3.75,0.18432 -3.75,-2.81037 z m 15,2.5 c 0,-1.08333 1.11111,-1.5 4,-1.5 2.2,0 4,-0.45 4,-1 0,-0.55 -1.89,-1 -4.2,-1 -5.50603,0 -3.81059,-1.74335 2.2,-2.26216 3.84078,-0.33152 3.58441,-0.41402 -1.75,-0.56313 l -6.25,-0.17471 v 4 c 0,2.2 0.45,4 1,4 0.55,0 1,-0.675 1,-1.5 z m 24.3875,-1.6875 c 0.80235,-4.01176 0.17417,-4.57798 -5.3875,-4.85608 -6.93749,-0.34689 -7,-0.31079 -7,4.04358 v 4 h 5.875 c 5.80458,0 5.88264,-0.0382 6.5125,-3.1875 z m -10.20392,-0.5625 c 0.27471,-2.3875 0.81074,-2.79091 4.06642,-3.06037 3.58405,-0.29663 3.75,-0.17493 3.75,2.75 0,2.9121 -0.19702,3.06037 -4.06642,3.06037 -3.84614,0 -4.04928,-0.14897 -3.75,-2.75 z m 17.74367,0.75 c 1.00532,0 2.38806,0.675 3.07275,1.5 0.68469,0.825 1.97729,1.49311 2.87244,1.48469 1.41902,-0.0134 1.43536,-0.14383 0.12756,-1.0183 -1.30825,-0.87477 -1.27629,-1.13483 0.25,-2.03438 0.9625,-0.56726 1.75,-1.90903 1.75,-2.9817 0,-1.69735 -0.71338,-1.95031 -5.5,-1.95031 -3.025,0 -5.8375,-0.014 -6.25,-0.0311 -1.01811,-0.0422 -1.55248,4.80215 -0.75732,6.86556 0.5908,1.53315 0.71991,1.52643 1.62426,-0.0845 0.54034,-0.9625 1.80498,-1.75 2.81031,-1.75 z m -1.92725,-2.5 c 0,-1.04762 1.05556,-1.5 3.5,-1.5 2.44444,0 3.5,0.45238 3.5,1.5 0,1.04762 -1.05556,1.5 -3.5,1.5 -2.44444,0 -3.5,-0.45238 -3.5,-1.5 z m 25,3 c 0,-2.25 -0.4,-2.5 -4,-2.5 -2.2,0 -4,0.45 -4,1 0,0.55 1.35,1 3,1 1.65,0 3,0.45 3,1 0,0.55 -2.025,1 -4.5,1 -4.71319,0 -4.84138,-0.12423 -3.86971,-3.75 0.5179,-1.93257 1.32719,-2.273 5.73634,-2.413 l 5.13337,-0.16299 -5.5,-0.60045 c -5.91574,-0.64583 -8,0.1272 -8,2.9671 0,4.24747 1.02014,4.95934 7.10699,4.95934 5.61921,0 5.89301,-0.11615 5.89301,-2.5 z m 9.22384,1.76185 c -5.72258,-0.39934 -6.31862,-2.26185 -0.72384,-2.26185 1.86008,0 3.66008,-0.45 4,-1 0.37325,-0.60393 -0.98962,-1 -3.44098,-1 -5.66528,0 -5.09643,-1.82036 0.69098,-2.21118 l 4.75,-0.32076 -5.75136,-0.48403 -5.75137,-0.48403 0.001,4.25 0.001,4.25 5.75,-0.18498 5.75,-0.18498 z M 80.488649,157.97118 c 1.10568,-0.59174 2.42225,-3.40177 3.3856,-7.22607 0.866982,-3.44178 1.488882,-6.33548 1.382002,-6.43044 -0.10689,-0.095 -4.306772,-1.25932 -9.333072,-2.58745 l -9.13873,-2.41479 -2.63037,12.05977 c -3.1866,14.61002 -3.22797,17.10526 -0.0922,5.55978 l 2.30864,-8.5 0.0957,6.67857 c 0.0607,4.23335 0.60116,7.18405 1.47628,8.05918 1.17415,1.17414 0.65817,1.96994 -3.45023,5.32143 -8.81815,7.19352 -5.0936,5.51999 4.62837,-2.07965 5.25731,-4.10962 10.37291,-7.90777 11.368,-8.44033 z m 51.562991,6.62982 c 1.10823,-4.85703 2.35609,-8.48985 2.77302,-8.07291 0.41694,0.41693 0.49049,-0.78413 0.16345,-2.66903 -0.40285,-2.3219 -0.28583,-2.99044 0.36287,-2.07309 0.67256,0.95107 0.92079,0.20714 0.83419,-2.5 l -0.12328,-3.85399 h 16.75098 c 15.20161,0 19.80244,-0.55541 14.99902,-1.81067 -0.9625,-0.25153 1.625,-0.53777 5.75,-0.63609 4.125,-0.0983 10.875,-0.76886 15,-1.4901 l 7.5,-1.31134 -14.5,-0.21189 -14.5,-0.21188 10.5,-5.16402 10.5,-5.16401 -20.99803,-0.27104 c -18.85904,-0.24344 -21.12556,-0.0966 -22.25,1.44113 -0.68858,0.94169 -1.25291,2.63866 -1.25407,3.77104 -0.002,1.89795 0.52564,2.04101 6.75,1.83037 l 6.7521,-0.22849 -8.5,2.45834 c -9.29082,2.68707 -26.76214,6.49865 -29.78814,6.49865 -1.61562,0 -2.25115,1.65641 -4.20151,10.95068 -1.90887,9.09653 -2.78156,11.41401 -5.15415,13.68709 -1.57091,1.50503 -2.8562,3.1165 -2.8562,3.58106 0,0.46455 5.28183,0.71786 11.73739,0.56291 l 11.73739,-0.28174 z m -70.806621,2.14348 c -0.31923,-0.79773 -0.55618,-0.56078 -0.60417,0.60417 -0.0434,1.05416 0.19293,1.64479 0.52522,1.3125 0.33229,-0.3323 0.36782,-1.1948 0.0789,-1.91667 z m 69.316871,-26.27816 7.5,-1.28254 -11.71562,-0.1259 c -27.154869,-0.29181 -55.893271,-7.00529 -67.330401,-15.72881 -4.39146,-3.34953 -6.42721,-7.11524 -6.53992,-12.09744 -0.0832,-3.67996 -0.11273,-3.71036 -0.93614,-0.96504 -0.46761,1.55904 -0.57746,3.54536 -0.24411,4.41405 0.35084,0.91429 0.18848,1.32133 -0.38556,0.96656 -0.5454,-0.33707 -2.19687,0.0124 -3.66993,0.77666 -3.25,1.68611 -3.51219,0.51721 -1.18299,-5.274 1.31032,-3.2579 1.31189,-3.47988 0.0127,-1.79415 -3.95458,5.13125 -2.70543,12.43974 2.97925,17.43096 6.31399,5.54376 28.69285,13.11237 44.611592,15.0878 8.694009,1.07888 26.282389,0.4077 36.901109,-1.40815 z m 8.01531,-5.28434 c 0.0112,-1.27965 0.23315,-1.40674 0.8258,-0.47285 0.50239,0.79165 1.65322,-2.39161 3.02741,-8.37394 1.21931,-5.3081 1.9727,-9.89532 1.6742,-10.19382 -0.29849,-0.2985 -0.54272,0.28228 -0.54272,1.29061 0,1.00833 -0.26609,1.56725 -0.59131,1.24203 -0.32521,-0.32522 -0.28995,-1.54078 0.0784,-2.70125 0.65543,-2.06508 1.13055,-2.10792 22.3413,-2.01437 18.48343,0.0815 21.63187,-0.11901 21.40128,-1.36317 -0.14869,-0.80231 3.19815,-4.65476 7.43743,-8.561 l 7.70776,-7.102244 h -27.1282 -27.1282 l -9.69935,8.016114 c -5.33464,4.40887 -10.71834,8.27187 -11.96378,8.58445 -1.5531,0.3898 -2.45944,1.56275 -2.88521,3.73389 -0.34143,1.74105 -1.46062,6.87805 -2.4871,11.41555 l -1.86632,8.25 h 9.89165 c 8.74812,0 9.89342,-0.20231 9.90696,-1.75 z m -47.276879,-14.5 2.89065,-12.25 16.673209,-0.5 16.67323,-0.5 7.59923,-6 c 4.17958,-3.300004 8.57259,-6.772536 9.76224,-7.716738 2.05977,-1.634792 1.00558,-1.718318 -22.08699,-1.75 l -24.249979,-0.03327 0.0153,-2.75 c 0.012,-2.154964 0.22807,-2.425435 0.9986,-1.25 0.698119,1.064981 0.814269,0.484956 0.40049,-2 -0.46043,-2.765108 -0.34139,-3.185046 0.566899,-2 0.93998,1.22637 1.03425,1.089555 0.51681,-0.75 -1.138759,-4.048399 0.31856,-6.407344 3.84113,-6.21761 1.73841,0.09363 13.51074,0.1121 26.16074,0.04104 l 23,-0.129208 8.86203,-8.622126 8.86202,-8.622126 -26.86202,0.661158 c -14.77411,0.363633 -37.32452,0.706511 -50.111999,0.761948 -12.787502,0.05544 -23.250002,0.268946 -23.250002,0.474464 0,0.205518 2.74671,1.760206 6.1038,3.454862 5.23297,2.641591 6.02118,3.392676 5.52462,5.264395 -0.31856,1.200762 -1.89143,7.133203 -3.49527,13.183203 -6.17896,23.308218 -10.1424,42.874058 -8.85489,43.712848 1.18206,0.77009 15.531582,5.64531 16.895622,5.74026 0.37063,0.0258 1.97467,-5.4656 3.56453,-12.2031 z m 110.761569,93.25 c 0.99549,-1.1 2.03498,-2 2.30998,-2 0.275,0 -0.31449,0.9 -1.30998,2 -0.99549,1.1 -2.03498,2 -2.30998,2 -0.275,0 0.31449,-0.9 1.30998,-2 z m 6,-7 c 0.99549,-1.1 2.03498,-2 2.30998,-2 0.275,0 -0.31449,0.9 -1.30998,2 -0.99549,1.1 -2.03498,2 -2.30998,2 -0.275,0 0.31449,-0.9 1.30998,-2 z"
       id="path1" />
  </g>
</svg>
